<svg width="24" height="24" viewBox="0 0 24 24" fill="none" xmlns="http://www.w3.org/2000/svg">
<path d="M17.9657 7.98476C17.9657 6.39649 17.3348 4.87327 16.2117 3.7502C15.0886 2.62712 13.5654 1.99619 11.9771 1.99619C10.3889 1.99619 8.86564 2.62712 7.74256 3.7502C6.61949 4.87327 5.98855 6.39649 5.98855 7.98476C5.98855 14.9714 2.99426 16.9676 2.99426 16.9676H20.96C20.96 16.9676 17.9657 14.9714 17.9657 7.98476Z" stroke="black" stroke-width="1.49714" stroke-linecap="round" stroke-linejoin="round"/>
<path d="M13.7038 20.96C13.5284 21.2625 13.2765 21.5136 12.9735 21.6881C12.6704 21.8627 12.3268 21.9545 11.9771 21.9545C11.6274 21.9545 11.2838 21.8627 10.9808 21.6881C10.6778 21.5136 10.4259 21.2625 10.2504 20.96" stroke="black" stroke-width="1.49714" stroke-linecap="round" stroke-linejoin="round"/>
</svg>
