<svg width="155" height="29" viewBox="0 0 155 29" fill="none" xmlns="http://www.w3.org/2000/svg">
<path d="M13.4824 26H8.17383V5.01172H0.84375V0.634766H20.8301V5.01172H13.4824V26ZM38.9531 8.66797L34.1367 26H29.127L22.4121 0.634766H27.9141L31.9043 19.0039H32.0449L36.791 0.634766H41.2734L46.0195 19.0039H46.1602L50.168 0.634766H55.6699L48.9375 26H43.9277L39.1113 8.66797H38.9531ZM63.6152 26H58.5352V0.634766H62.9648L74.8125 17.1582H74.9531V0.634766H80.0332V26H75.6387L63.7734 9.38867H63.6152V26Z" fill="white"/>
<path d="M83.3203 18.7754H88.4355C88.6816 20.8672 90.8613 22.2383 93.6738 22.2383C96.5039 22.2383 98.4375 20.8848 98.4375 19.0215C98.4375 17.3691 97.2246 16.4551 94.166 15.7695L90.8613 15.0488C86.1855 14.0469 83.8828 11.6738 83.8828 7.96484C83.8828 3.28906 87.9258 0.195312 93.5859 0.195312C99.4922 0.195312 103.201 3.23633 103.289 7.82422H98.3145C98.1387 5.67969 96.2578 4.37891 93.6035 4.37891C90.9844 4.37891 89.2266 5.62695 89.2266 7.50781C89.2266 9.07227 90.457 9.95117 93.375 10.6191L96.4512 11.2695C101.531 12.3594 103.746 14.5391 103.746 18.4062C103.746 23.3281 99.7559 26.4395 93.4629 26.4395C87.3633 26.4395 83.4785 23.5391 83.3203 18.7754ZM118.459 26.4395C110.936 26.4395 106.225 21.4648 106.225 13.3262C106.225 5.25781 110.936 0.195312 118.459 0.195312C125.965 0.195312 130.676 5.25781 130.676 13.3262C130.676 17.791 129.252 21.377 126.633 23.5391L129.85 28.3906H124.699L122.889 25.7363C121.535 26.2109 120.059 26.4395 118.459 26.4395ZM118.459 22.0449C119.109 22.0449 119.707 21.957 120.27 21.7988L117.492 17.6504H122.291L123.398 19.1621C124.594 17.791 125.262 15.7695 125.262 13.3262C125.262 8 122.607 4.57227 118.459 4.57227C114.293 4.57227 111.639 8 111.639 13.3262C111.639 18.6348 114.293 22.0449 118.459 22.0449ZM139.43 4.7832V12.8691H144C146.672 12.8691 148.236 11.3398 148.236 8.82617C148.236 6.36523 146.584 4.7832 143.947 4.7832H139.43ZM139.43 16.7188V26H134.121V0.634766H144.51C150.346 0.634766 153.686 3.71094 153.686 8.7207C153.686 11.9727 151.998 14.7852 149.08 15.9277L154.424 26H148.412L143.684 16.7188H139.43Z" fill="#76C8FF"/>
</svg>
