<svg width="25" height="25" viewBox="0 0 25 25" fill="none" xmlns="http://www.w3.org/2000/svg">
<g clip-path="url(#clip0_74_2119)">
<path d="M17.8762 21.0922V19.096C17.8762 18.0372 17.4556 17.0217 16.7069 16.273C15.9581 15.5243 14.9427 15.1037 13.8838 15.1037H5.89906C4.84021 15.1037 3.82474 15.5243 3.07602 16.273C2.3273 17.0217 1.90668 18.0372 1.90668 19.096V21.0922" stroke="black" stroke-width="1.49714" stroke-linecap="round" stroke-linejoin="round"/>
<path d="M9.89143 11.1113C12.0964 11.1113 13.8838 9.32384 13.8838 7.11891C13.8838 4.91398 12.0964 3.12653 9.89143 3.12653C7.6865 3.12653 5.89905 4.91398 5.89905 7.11891C5.89905 9.32384 7.6865 11.1113 9.89143 11.1113Z" stroke="black" stroke-width="1.49714" stroke-linecap="round" stroke-linejoin="round"/>
<path d="M23.8648 21.0922V19.096C23.8641 18.2114 23.5697 17.3521 23.0277 16.653C22.4858 15.9539 21.727 15.4545 20.8705 15.2334" stroke="black" stroke-width="1.49714" stroke-linecap="round" stroke-linejoin="round"/>
<path d="M16.8781 3.25626C17.7369 3.47614 18.4981 3.97558 19.0416 4.67586C19.5852 5.37613 19.8802 6.2374 19.8802 7.12388C19.8802 8.01035 19.5852 8.87162 19.0416 9.57189C18.4981 10.2722 17.7369 10.7716 16.8781 10.9915" stroke="black" stroke-width="1.49714" stroke-linecap="round" stroke-linejoin="round"/>
</g>
<defs>
<clipPath id="clip0_74_2119">
<rect width="23.9543" height="23.9543" fill="white" transform="translate(0.908569 0.132233)"/>
</clipPath>
</defs>
</svg>
